<svg width="512" height="512" fill="none" xmlns="http://www.w3.org/2000/svg"><path fill-rule="evenodd" clip-rule="evenodd" d="M228.765 56.37c-59.284 8.04-113.107 42.935-144.725 93.831-28.55 45.957-37.254 102.296-23.941 154.967 15.971 63.189 62.038 114.957 123.265 138.519 38.288 14.735 82.028 17.347 122.144 7.294 71.871-18.011 128.351-74.249 146.439-145.813 8.07-31.927 8.07-66.62 0-98.547-18.088-71.564-74.568-127.802-146.439-145.813-6.657-1.668-17.128-3.69-23.268-4.49-13.622-1.779-40.164-1.753-53.475.052Zm53.656 13.644c59.018 7.731 112.484 45.331 140.693 98.941 10.13 19.251 16.669 39.412 19.695 60.727 1.95 13.73 1.95 38.695 0 52.425-8.485 59.751-45.611 112.065-99.473 140.164-27.745 14.474-55.204 21.115-87.313 21.115-50.336 0-94.713-17.846-130.878-52.631-30.74-29.567-49.992-66.98-55.908-108.648-1.95-13.73-1.95-38.695 0-52.425 7.492-52.76 37.297-99.888 82.293-130.121 3.957-2.659 11.708-7.189 17.225-10.066 35.113-18.318 72.988-24.81 113.666-19.48Zm-49.535 16.444C159.644 96.915 101.931 151.56 87.18 224.416c-1.914 9.453-2.234 14.033-2.234 31.965 0 17.933.32 22.512 2.234 31.965 2.712 13.399 7.408 27.919 12.73 39.364 3.962 8.519 13.53 25.051 14.499 25.051.282 0 6.082-4.681 12.89-10.402 6.806-5.72 12.535-10.514 12.727-10.652.194-.138-.522-1.482-1.588-2.985-2.071-2.917-8.815-16.172-10.97-21.56l-1.3-3.249 41.21-41.046 41.21-41.046.253-47.691.252-47.692 8.799-2.628c4.84-1.445 9.569-2.655 10.511-2.689 1.613-.057 1.711 3.705 1.711 65.883v65.945l-13.705 13.671-13.705 13.671 26.611 55.705c14.636 30.638 26.854 55.689 27.149 55.669.295-.021 12.482-25.101 27.083-55.735l26.545-55.697-13.591-13.642-13.591-13.642V120.906l3.178.687c1.748.378 6.477 1.617 10.51 2.754l7.333 2.068.252 47.703.252 47.703 41.097 40.933 41.098 40.934-3.079 7.256c-16.209 38.203-49.907 67.129-91.693 78.712l-9.14 2.533-8.264 17.393c-4.545 9.566-8.089 17.567-7.876 17.779.806.803 23.327-2.654 32.116-4.928 20.003-5.174 40.649-14.725 57.544-26.619 11.929-8.398 31.892-28.279 40.296-40.133 11.977-16.892 21.7-37.773 26.526-56.96 3.969-15.783 4.971-24.318 4.971-42.34 0-18.022-1.002-26.557-4.971-42.34-4.187-16.645-12.24-35.18-21.492-49.462l-4.287-6.618-12.455 10.458c-6.85 5.751-12.613 10.566-12.805 10.699-.194.132 1.854 4.099 4.551 8.816 7.4 12.944 13.372 28.63 15.649 41.107l.95 5.207-36.353-36.188c-19.994-19.903-36.663-35.879-37.042-35.501-.38.379-.691-5.957-.691-14.077 0-8.121.275-14.766.609-14.766 2.227 0 19.594 11.709 27.046 18.234l3.7 3.239 12.611-10.492c6.936-5.772 12.64-10.809 12.676-11.195.121-1.294-14.994-13.545-24.377-19.759-18.509-12.256-38.987-20.774-61.04-25.387-14.869-3.112-42.523-4.025-57.424-1.898Zm-76.274 111.197c-20.022 19.943-36.561 36.102-36.753 35.911-.191-.19.526-4.007 1.596-8.48 8.737-36.545 31.963-68.168 64.173-87.368l6.844-4.079.273 13.879.272 13.879-36.405 36.258Zm.942 53.58c-19.507 19.429-35.746 35.326-36.086 35.326-.341 0-1.132-3.614-1.759-8.032s-1.35-9.335-1.606-10.928c-.435-2.706 1.992-5.344 36.952-40.166l37.417-37.269.275 12.872.273 12.873-35.466 35.324Zm236.815 16.888c0 3.379-1.511 13.158-2.606 16.865-.433 1.462-7.878-5.468-36.61-34.068l-36.068-35.904v-25.312l37.642 37.471c35.485 35.325 37.642 37.671 37.642 40.948ZM147.81 367.168l-12.396 10.418 4.085 4.223c6.128 6.332 21.667 17.708 32.558 23.836 10.842 6.1 25.118 12.03 37.525 15.587 11.718 3.36 37.767 7.454 36.931 5.805-.216-.426-4.064-8.509-8.549-17.961l-8.157-17.185-6.935-1.657c-19.05-4.553-38.699-14.5-55.005-27.845-3.854-3.153-7.154-5.713-7.333-5.687-.18.026-5.905 4.736-12.724 10.466Z" fill="#fff"/></svg>