<svg width="512" height="512" fill="none" xmlns="http://www.w3.org/2000/svg"><path fill-rule="evenodd" clip-rule="evenodd" d="m240.001 108.951-14.967 62.952-26.664 26.746-26.666 26.746-63.298 15.059C73.592 248.737 45.107 255.733 45.107 256c0 .267 28.485 7.262 63.299 15.546l63.298 15.059 26.664 26.746 26.664 26.746 14.962 62.952C248.223 437.671 255.193 466 255.482 466c.289 0 7.26-28.329 15.489-62.951l14.962-62.952 26.65-26.747 26.649-26.746 63.299-15.049c34.814-8.277 63.299-15.277 63.299-15.555 0-.278-28.485-7.278-63.299-15.555l-63.299-15.049-26.649-26.746-26.65-26.747-14.962-62.952C262.742 74.329 255.774 46 255.488 46c-.286 0-7.256 28.329-15.487 62.951Zm-94.339 42.778c-35.932 34.089-65.164 62.146-64.962 62.35.204.203 15.641-3.439 34.307-8.094l33.937-8.463 20.683-20.102 20.684-20.101 10.618-33.507c5.841-18.43 10.494-33.632 10.341-33.785-.152-.153-29.676 27.614-65.608 61.702Zm155.579-61.716c0 .246 4.785 15.451 10.636 33.789l10.636 33.341 15.415 15.468c8.479 8.506 17.915 17.649 20.97 20.317l5.554 4.851 33.342 8.227c18.339 4.526 33.635 8.11 33.992 7.965.356-.144-25.154-24.763-56.69-54.707-60.667-57.606-73.855-69.972-73.855-69.25Zm-8.763 129.531 36.512 36.459-36.761 36.698-36.762 36.699-36.761-36.699-36.761-36.698 36.512-36.459c20.083-20.053 36.737-36.461 37.01-36.461.274 0 16.928 16.408 37.011 36.461Zm-55.518 18.473-18.001 17.99 18.255 18.222 18.253 18.223 18.254-18.223 18.255-18.222-18.002-17.99c-9.899-9.894-18.228-17.989-18.507-17.989-.278 0-8.607 8.095-18.507 17.989ZM15.888 260.792c.804.464 29.503 14.297 63.774 30.739l62.314 29.896 14.381 11.1c7.91 6.105 14.381 11.242 14.381 11.416 0 1.218-38.81-11.425-50.768-16.538-8.118-3.472-14.9-6.174-15.069-6.006-.169.17 17.524 16.258 39.318 35.753 21.795 19.495 52.259 46.76 67.7 60.588 15.441 13.829 28.262 24.956 28.491 24.726.23-.229-5.382-19.914-12.471-43.744l-12.888-43.327-26.296-26.715-26.295-26.714-73.261-21.038c-40.294-11.572-73.602-21.026-74.017-21.01-.415.017-.097.409.706.874Zm406.116 20.318-72.555 21.011-26.208 26.766-26.209 26.766-12.831 43.264c-7.057 23.795-12.712 43.418-12.566 43.608.146.188 30.75-26.903 68.008-60.202 37.259-33.301 67.603-60.686 67.431-60.856-.171-.172-7.071 2.555-15.334 6.058-8.262 3.503-22.472 8.554-31.578 11.224a5266.707 5266.707 0 0 0-18.018 5.301c-1.743.534-.996-.08 15.965-13.129l13.19-10.148 62.604-30.044c34.432-16.524 62.787-30.223 63.011-30.442 1.112-1.091-7.679 1.353-74.91 20.823Z" fill="#fff"/></svg>