<svg width="512" height="512" fill="none" xmlns="http://www.w3.org/2000/svg"><path fill-rule="evenodd" clip-rule="evenodd" d="M116.644 113.415v57.938l9.445-11.988c7.641-9.697 9.445-19.126 9.445-49.406 0-31.43-1.511-38.784-9.445-45.95-9.398-8.49-9.445-8.236-9.445 49.406Zm94.513 12.705c-6.46 1.362-17.809 6.788-25.219 12.059-13.261 9.424-13.332 9.721-4.458 18.579 16.846 16.811 126.609 19.394 145.877 3.432 10.352-8.575 7.561-20.21-6.498-27.093-13.384-6.548-88.97-11.357-109.702-6.977Zm-69.852 45.205c-15.74 16.726-25.294 44.649-28.147 82.274-2.413 31.864-1.728 35.569 8.624 46.567 15.169 16.119 34.711 24.774 68.312 30.271 35.458 5.794 68.209 5.242 100.932-1.702 28.274-6.006 38.329-17.575 44.69-51.414 3.953-21.045 24.369-34.358 46.045-30.03 12.987 2.593 13.516 1.989 13.516-15.317 0-21.747-9.086-41.127-27.565-58.801l-13.762-13.158-12.968 11.998c-7.136 6.6-20.681 13.172-30.107 14.6-9.422 1.434-23.66 4.663-31.637 7.18-18.413 5.808-37.54 5.813-56 .024-7.977-2.503-20.185-5.686-27.127-7.072-6.942-1.386-18.938-7.825-26.655-14.307-7.721-6.483-14.951-11.786-16.071-11.786-1.119 0-6.555 4.804-12.08 10.673Zm223.063 106.076c-2.711 1.905-12.274 18.183-21.252 36.173-20.009 40.104-25.965 42.339-104.624 39.213-43.661-1.735-55.76-.858-57.701 4.191-4 10.409-20.832 7.293-29.162-5.398-7.731-11.781-16.095-15.642-16.095-7.434 0 2.395 5.502 10.881 12.227 18.857 13.19 15.652 27.481 18.48 39.349 7.793 6.455-5.808 12.113-5.756 42.097.415 31.41 6.463 38.612 6.402 77.148-.67 33.266-6.1 48.067-11.536 68.077-24.985C397.478 330.06 400 326.689 400 311.33c0-23.737-21.28-44.003-35.632-33.929ZM193.523 395.027c-1.28 3.329-9.068 6.053-17.299 6.053-13.984 0-26.664 6.351-46.593 23.336-13.483 11.494-10.229 22.388 7.683 25.745 19.217 3.597 38.542-3.031 50.485-17.325l8.812-10.541.161 10.696c.128 8.901 2.05 10.221 11.448 7.869 6.21-1.556 12.708-.538 14.446 2.267 3.972 6.416 57.691 6.746 61.63.382 1.606-2.593 8.104-4.714 14.447-4.714 7.098 0 11.527-2.716 11.527-7.072 0-11.173 11.949-8.236 18.848 4.634 3.453 6.44 10.277 12.979 15.165 14.525 11.225 3.559 45.304-1.999 49.016-7.991 6.729-10.866-40.006-44.281-56.067-40.085-5.856 1.527-11.901-.439-15.202-4.945-7.316-9.985-124.767-12.573-128.507-2.834Z" fill="#fff"/></svg>