<svg width="512" height="512" fill="none" xmlns="http://www.w3.org/2000/svg"><path fill-rule="evenodd" clip-rule="evenodd" d="M238.692 84.675c-24 2.45-48.74 10.562-69.536 22.805-35.347 20.809-62.892 54.593-75.996 93.214-18.337 54.038-8.8 113.439 25.529 159.024 25.699 34.126 61.634 56.75 104.315 65.678 11.017 2.304 14.429 2.571 33.221 2.602 18.034.029 22.486-.276 32.045-2.197 46.445-9.331 85.36-35.221 111.325-74.061 12.662-18.941 20.901-38.83 25.806-62.301 2.306-11.033 2.579-14.472 2.598-32.788.019-17.267-.316-22.187-2.149-31.505-12.719-64.727-59.283-116.299-121.407-134.466-18.729-5.477-46.272-7.992-65.751-6.005Zm-8.767 110.002v73.951l-4.859 3.118c-5.911 3.794-13.752 12.211-17.623 18.916-5.038 8.727-6.965 16.434-6.97 27.862-.006 16.185 4.945 28.247 16.229 39.534 10.064 10.066 21.97 15.564 35.907 16.584 26.847 1.963 51.833-16.01 58.57-42.13 1.957-7.589 1.983-20.663.056-28.066-3.373-12.949-14.958-28.695-25.111-34.131l-3.598-1.928V120.571l3.166.688c1.742.378 6.453 1.618 10.471 2.756l7.306 2.07.252 47.744.251 47.745 41.384 41.41 41.382 41.411-4.289 9.523c-12.865 28.556-38.761 54.814-66.863 67.796-7.731 3.571-23.113 8.909-29.67 10.296-2.638.558-3.504 1.813-8.371 12.135-6.279 13.315-5.403 12.79-21.32 12.79-15.455 0-14.524.562-20.506-12.378-5.733-12.403-4.786-11.608-18.265-15.33-16.496-4.554-35.723-14.812-49.203-26.251-3.55-3.012-6.743-5.478-7.096-5.478-.353 0-4.387 3.156-8.967 7.014l-8.326 7.014-5.241-5.796c-5.511-6.096-14.848-18.055-14.864-19.041-.007-.441 15.37-13.702 16.243-14.009.099-.035-2.944-6.326-6.764-13.981l-6.943-13.918 41.1-41.12 41.101-41.122v-95.808l6.089-2.009c5.226-1.725 12.123-3.564 14.611-3.899.401-.053.731 33.181.731 73.854Zm-71.992 57.008-35.972 35.981-1.011-3.815c-1.849-6.972-3.211-25.126-2.589-34.508 3.147-47.474 28.232-88.609 68.327-112.048l6.708-3.921.254 41.165.254 41.164-35.971 35.982Zm175.246-110.189c2.411 1.608 7.344 5.287 10.963 8.174l6.579 5.25 8.151-6.866c4.484-3.776 8.623-6.866 9.2-6.866 1.182 0 13.535 13.964 17.777 20.096l2.781 4.02-7.756 6.547c-4.265 3.601-8.003 6.949-8.307 7.44-.304.491 1.026 3.492 2.955 6.667 7.065 11.633 13.463 28.105 16.759 43.149 2.234 10.194 2.526 43.727.46 52.774l-1.312 5.743-35.944-35.943-35.943-35.944v-82.529l4.627 2.682a204.346 204.346 0 0 1 9.01 5.606Zm-62.862 146.195c7.077 3.24 13.214 9.119 16.634 15.934 2.533 5.047 2.831 6.618 2.828 14.899-.004 8.203-.31 9.842-2.688 14.407-5.428 10.413-13.287 16.449-24.355 18.706-15.475 3.155-32.049-6.17-37.723-21.224-2.945-7.814-2.381-19.991 1.248-26.992 2.51-4.843 8.658-11.385 13.505-14.372 8.291-5.11 21.114-5.68 30.551-1.358Z" fill="#fff"/></svg>