<svg width="512" height="512" fill="none" xmlns="http://www.w3.org/2000/svg"><path fill-rule="evenodd" clip-rule="evenodd" d="m249.266 73.004-6.163 26.003-72.239 71.996-72.238 71.996-26.314 6.21C57.843 252.625 46 255.68 46 256c0 .32 11.841 3.375 26.313 6.791l26.313 6.21 72.238 71.996 72.239 71.996 6.163 26.004C252.656 453.299 255.685 465 256 465c.315 0 3.344-11.701 6.734-26.003l6.163-26.004 72.239-71.996 72.238-71.996 26.313-6.21C454.159 259.375 466 256.32 466 256c0-.32-11.841-3.375-26.313-6.791l-26.313-6.21-72.238-71.996-72.239-71.996-6.163-26.004C259.344 58.704 256.315 47 256 47c-.315 0-3.344 11.702-6.734 26.004Zm-19.663 82.015-4.004 16.895-27.044 26.914-27.043 26.916-16.823 3.948c-9.253 2.173-17.163 3.95-17.578 3.95-.415 0 20.981-21.636 47.548-48.08 26.566-26.444 48.448-47.936 48.626-47.759.177.177-1.48 7.925-3.682 17.216Zm145.159 78.374c-.177.176-7.962-1.473-17.298-3.665l-16.976-3.984-27.043-26.916-27.044-26.914-3.967-16.742c-2.183-9.209-3.969-17.082-3.969-17.495 0-.413 21.74 20.881 48.31 47.321 26.57 26.44 48.165 48.218 47.987 48.395Zm-81.644-13.845 36.619 36.455-36.868 36.694L256 329.39l-36.869-36.693-36.868-36.694 36.619-36.455c20.141-20.05 36.844-36.455 37.118-36.455.274 0 16.977 16.405 37.118 36.455Zm-55.679 18.471-18.054 17.988 18.308 18.22L256 292.447l18.307-18.22 18.308-18.22-18.054-17.988c-9.929-9.892-18.282-17.986-18.561-17.986-.279 0-8.632 8.094-18.561 17.986Zm-82.75 44.289 16.823 3.948 27.043 26.916 27.044 26.914 4.004 16.895c2.202 9.291 3.859 17.039 3.682 17.216-.178.177-22.06-21.315-48.626-47.759-26.567-26.444-47.963-48.08-47.548-48.08.415 0 8.325 1.777 17.578 3.95Zm172.652 44.13c-26.566 26.444-48.448 47.936-48.626 47.759-.177-.177 1.48-7.925 3.682-17.216l4.004-16.895 27.044-26.918 27.043-26.918 16.117-3.86c8.864-2.123 16.773-3.899 17.577-3.945.804-.048-20.274 21.549-46.841 47.993Z" fill="#fff"/></svg>