<svg viewBox="0 0 2000 81" fill="none" xmlns="http://www.w3.org/2000/svg" class="sectionSeparator"><path d="M0 72H467.47C474.81 71.9999 483.412 67.6662 488.511 61.2857C491.002 58.1691 495.605 51.968 499.999 45.9796C504.237 40.2036 508.279 34.6255 510.041 32.2041C514.124 26.5917 520.806 22 533.528 22H1466.47C1479.19 22 1485.88 26.5917 1489.96 32.2041C1491.72 34.6255 1495.76 40.2036 1500 45.9796C1504.39 51.968 1509 58.1691 1511.49 61.2857C1516.59 67.6662 1525.19 71.9999 1532.53 72H2000" stroke="#73878E" stroke-opacity="0.42" stroke-width="3"></path><path d="M1518.47 50.2857C1523.5 56.6662 1531.98 60.9999 1539.21 61H2000V0.5H0V61H460.789C468.023 60.9999 476.502 56.6662 481.529 50.2857C483.984 47.1691 488.522 40.968 492.853 34.9796C497.03 29.2036 501.014 23.6255 502.751 21.2041C506.776 15.5917 513.362 11 525.903 11H1474.1C1486.64 11 1493.22 15.5917 1497.25 21.2041C1498.99 23.6255 1502.97 29.2036 1507.15 34.9796C1511.48 40.968 1516.02 47.1691 1518.47 50.2857Z" fill="#202530"></path><g filter="url(#filter0_d_946_2079)"><path d="M1650 72L1750 72" stroke="#B7ECFF" stroke-width="3" stroke-linecap="round" stroke-linejoin="round"></path></g><g filter="url(#filter1_d_946_2079)"><path d="M250 72L350 72" stroke="#B7ECFF" stroke-width="3" stroke-linecap="round" stroke-linejoin="round"></path></g><g filter="url(#filter2_d_946_2079)"><path d="M1489.96 32.2041L1488.75 33.0866L1488.75 33.0866L1489.96 32.2041ZM1466.47 22L1466.47 20.5L1466.47 20.5L1466.47 22ZM1504.17 49.1088C1504.66 49.7752 1504.52 50.7144 1503.85 51.2066C1503.18 51.6987 1502.25 51.5575 1501.75 50.8912L1504.17 49.1088ZM1395.5 23.5C1394.67 23.5 1394 22.8284 1394 22C1394 21.1716 1394.67 20.5 1395.5 20.5V23.5ZM1488.75 33.0866C1484.96 27.8889 1478.75 23.5 1466.47 23.5L1466.47 20.5C1479.64 20.5 1486.79 25.2945 1491.17 31.3216L1488.75 33.0866ZM1466.47 23.5H1395.5V20.5H1466.47V23.5ZM1501.75 50.8912C1496.55 43.8512 1490.91 36.067 1488.75 33.0866L1491.17 31.3216C1493.35 34.3092 1498.98 42.0801 1504.17 49.1088L1501.75 50.8912Z" fill="#B7ECFF"></path></g><g filter="url(#filter3_d_946_2079)"><path d="M510.041 32.2041L511.254 33.0866L511.254 33.0866L510.041 32.2041ZM533.528 22L533.528 20.5L533.528 20.5L533.528 22ZM495.833 49.1088C495.341 49.7752 495.482 50.7144 496.149 51.2066C496.815 51.6987 497.754 51.5575 498.247 50.8912L495.833 49.1088ZM604.5 23.5C605.328 23.5 606 22.8284 606 22C606 21.1716 605.328 20.5 604.5 20.5V23.5ZM511.254 33.0866C515.035 27.8889 521.252 23.5 533.528 23.5L533.528 20.5C520.36 20.5 513.213 25.2945 508.828 31.3216L511.254 33.0866ZM533.528 23.5H604.5V20.5H533.528V23.5ZM498.247 50.8912C503.446 43.8512 509.085 36.067 511.254 33.0866L508.828 31.3216C506.654 34.3092 501.025 42.0801 495.833 49.1088L498.247 50.8912Z" fill="#B7ECFF"></path></g><defs><filter id="filter0_d_946_2079" x="1641.1" y="63.1" width="117.8" height="17.8" filterUnits="userSpaceOnUse" color-interpolation-filters="sRGB"><feFlood flood-opacity="0" result="BackgroundImageFix"></feFlood><feColorMatrix in="SourceAlpha" type="matrix" values="0 0 0 0 0 0 0 0 0 0 0 0 0 0 0 0 0 0 127 0" result="hardAlpha"></feColorMatrix><feOffset></feOffset><feGaussianBlur stdDeviation="3.7"></feGaussianBlur><feComposite in2="hardAlpha" operator="out"></feComposite><feColorMatrix type="matrix" values="0 0 0 0 0 0 0 0 0 0.736842 0 0 0 0 1 0 0 0 1 0"></feColorMatrix><feBlend mode="normal" in2="BackgroundImageFix" result="effect1_dropShadow_946_2079"></feBlend><feBlend mode="normal" in="SourceGraphic" in2="effect1_dropShadow_946_2079" result="shape"></feBlend></filter><filter id="filter1_d_946_2079" x="241.1" y="63.1" width="117.8" height="17.8" filterUnits="userSpaceOnUse" color-interpolation-filters="sRGB"><feFlood flood-opacity="0" result="BackgroundImageFix"></feFlood><feColorMatrix in="SourceAlpha" type="matrix" values="0 0 0 0 0 0 0 0 0 0 0 0 0 0 0 0 0 0 127 0" result="hardAlpha"></feColorMatrix><feOffset></feOffset><feGaussianBlur stdDeviation="3.7"></feGaussianBlur><feComposite in2="hardAlpha" operator="out"></feComposite><feColorMatrix type="matrix" values="0 0 0 0 0 0 0 0 0 0.736842 0 0 0 0 1 0 0 0 1 0"></feColorMatrix><feBlend mode="normal" in2="BackgroundImageFix" result="effect1_dropShadow_946_2079"></feBlend><feBlend mode="normal" in="SourceGraphic" in2="effect1_dropShadow_946_2079" result="shape"></feBlend></filter><filter id="filter2_d_946_2079" x="1386.6" y="13.1" width="125.26" height="45.8001" filterUnits="userSpaceOnUse" color-interpolation-filters="sRGB"><feFlood flood-opacity="0" result="BackgroundImageFix"></feFlood><feColorMatrix in="SourceAlpha" type="matrix" values="0 0 0 0 0 0 0 0 0 0 0 0 0 0 0 0 0 0 127 0" result="hardAlpha"></feColorMatrix><feOffset></feOffset><feGaussianBlur stdDeviation="3.7"></feGaussianBlur><feComposite in2="hardAlpha" operator="out"></feComposite><feColorMatrix type="matrix" values="0 0 0 0 0 0 0 0 0 0.736842 0 0 0 0 1 0 0 0 1 0"></feColorMatrix><feBlend mode="normal" in2="BackgroundImageFix" result="effect1_dropShadow_946_2079"></feBlend><feBlend mode="normal" in="SourceGraphic" in2="effect1_dropShadow_946_2079" result="shape"></feBlend></filter><filter id="filter3_d_946_2079" x="488.14" y="13.1" width="125.26" height="45.8001" filterUnits="userSpaceOnUse" color-interpolation-filters="sRGB"><feFlood flood-opacity="0" result="BackgroundImageFix"></feFlood><feColorMatrix in="SourceAlpha" type="matrix" values="0 0 0 0 0 0 0 0 0 0 0 0 0 0 0 0 0 0 127 0" result="hardAlpha"></feColorMatrix><feOffset></feOffset><feGaussianBlur stdDeviation="3.7"></feGaussianBlur><feComposite in2="hardAlpha" operator="out"></feComposite><feColorMatrix type="matrix" values="0 0 0 0 0 0 0 0 0 0.736842 0 0 0 0 1 0 0 0 1 0"></feColorMatrix><feBlend mode="normal" in2="BackgroundImageFix" result="effect1_dropShadow_946_2079"></feBlend><feBlend mode="normal" in="SourceGraphic" in2="effect1_dropShadow_946_2079" result="shape"></feBlend></filter></defs></svg>