<svg xmlns="http://www.w3.org/2000/svg" viewBox="0 0 48 48" preserveAspectRatio="xMidYMid meet" class="iconImage"><path fill-rule="evenodd" clip-rule="evenodd" d="M24 48C37.2548 48 48 37.2548 48 24C48 10.7452 37.2548 0 24 0C10.7452 0 0 10.7452 0 24C0 37.2548 10.7452 48 24 48ZM16.6154 35.6923C21.7133 35.6923 25.8462 31.5601 25.8462 26.4615C25.8462 21.363 21.7133 17.2308 16.6154 17.2308C11.5174 17.2308 7.38462 21.363 7.38462 26.4615C7.38462 31.5601 11.5174 35.6923 16.6154 35.6923ZM35.8271 21.5649C34.3736 24.6707 31.5942 27.0337 28.2172 27.9231C27.8368 30.9736 26.281 33.6587 24.0171 35.512C25.4384 36.4063 27.1203 36.9231 28.9231 36.9231C34.021 36.9231 38.1538 32.7909 38.1538 27.6923C38.1538 25.3413 37.2746 23.1947 35.8271 21.5649ZM33.9364 17.8462C33.9364 21.8654 31.3676 25.2861 27.7823 26.5529L27.7826 26.4615C27.7826 20.0048 22.5478 14.7692 16.0903 14.7692H16C17.267 11.1827 20.6864 8.61538 24.7057 8.61538C29.8036 8.61538 33.9364 12.7476 33.9364 17.8462Z" fill="#FF4216"></path></svg>